%TF.GenerationSoftware,KiCad,Pcbnew,(5.1.8)-1*%
%TF.CreationDate,2021-01-22T21:13:55+01:00*%
%TF.ProjectId,const-curr_LT3092,636f6e73-742d-4637-9572-725f4c543330,rev?*%
%TF.SameCoordinates,Original*%
%TF.FileFunction,Legend,Top*%
%TF.FilePolarity,Positive*%
%FSLAX46Y46*%
G04 Gerber Fmt 4.6, Leading zero omitted, Abs format (unit mm)*
G04 Created by KiCad (PCBNEW (5.1.8)-1) date 2021-01-22 21:13:55*
%MOMM*%
%LPD*%
G01*
G04 APERTURE LIST*
%ADD10C,0.250000*%
%ADD11C,0.120000*%
%ADD12C,0.150000*%
G04 APERTURE END LIST*
D10*
X101400000Y-60152380D02*
X101590476Y-60152380D01*
X101685714Y-60200000D01*
X101780952Y-60295238D01*
X101828571Y-60485714D01*
X101828571Y-60819047D01*
X101780952Y-61009523D01*
X101685714Y-61104761D01*
X101590476Y-61152380D01*
X101400000Y-61152380D01*
X101304761Y-61104761D01*
X101209523Y-61009523D01*
X101161904Y-60819047D01*
X101161904Y-60485714D01*
X101209523Y-60295238D01*
X101304761Y-60200000D01*
X101400000Y-60152380D01*
X102257142Y-60152380D02*
X102257142Y-60961904D01*
X102304761Y-61057142D01*
X102352380Y-61104761D01*
X102447619Y-61152380D01*
X102638095Y-61152380D01*
X102733333Y-61104761D01*
X102780952Y-61057142D01*
X102828571Y-60961904D01*
X102828571Y-60152380D01*
X103161904Y-60152380D02*
X103733333Y-60152380D01*
X103447619Y-61152380D02*
X103447619Y-60152380D01*
X84376190Y-68252380D02*
X84376190Y-67252380D01*
X84852380Y-68252380D02*
X84852380Y-67252380D01*
X85423809Y-68252380D01*
X85423809Y-67252380D01*
X98438095Y-67200000D02*
X98342857Y-67152380D01*
X98200000Y-67152380D01*
X98057142Y-67200000D01*
X97961904Y-67295238D01*
X97914285Y-67390476D01*
X97866666Y-67580952D01*
X97866666Y-67723809D01*
X97914285Y-67914285D01*
X97961904Y-68009523D01*
X98057142Y-68104761D01*
X98200000Y-68152380D01*
X98295238Y-68152380D01*
X98438095Y-68104761D01*
X98485714Y-68057142D01*
X98485714Y-67723809D01*
X98295238Y-67723809D01*
X98914285Y-68152380D02*
X98914285Y-67152380D01*
X99485714Y-68152380D01*
X99485714Y-67152380D01*
X99961904Y-68152380D02*
X99961904Y-67152380D01*
X100200000Y-67152380D01*
X100342857Y-67200000D01*
X100438095Y-67295238D01*
X100485714Y-67390476D01*
X100533333Y-67580952D01*
X100533333Y-67723809D01*
X100485714Y-67914285D01*
X100438095Y-68009523D01*
X100342857Y-68104761D01*
X100200000Y-68152380D01*
X99961904Y-68152380D01*
D11*
%TO.C,C1*%
X83253733Y-58810000D02*
X83546267Y-58810000D01*
X83253733Y-57790000D02*
X83546267Y-57790000D01*
%TO.C,J2*%
X101070000Y-65970000D02*
X102400000Y-65970000D01*
X101070000Y-67300000D02*
X101070000Y-65970000D01*
X101070000Y-68570000D02*
X103730000Y-68570000D01*
X103730000Y-68570000D02*
X103730000Y-68630000D01*
X101070000Y-68570000D02*
X101070000Y-68630000D01*
X101070000Y-68630000D02*
X103730000Y-68630000D01*
%TO.C,C2*%
X95153733Y-67390000D02*
X95446267Y-67390000D01*
X95153733Y-68410000D02*
X95446267Y-68410000D01*
%TO.C,C3*%
X87553733Y-57790000D02*
X87846267Y-57790000D01*
X87553733Y-58810000D02*
X87846267Y-58810000D01*
%TO.C,C4*%
X95153733Y-58810000D02*
X95446267Y-58810000D01*
X95153733Y-57790000D02*
X95446267Y-57790000D01*
%TO.C,J1*%
X83930000Y-68730000D02*
X83930000Y-66070000D01*
X83870000Y-68730000D02*
X83930000Y-68730000D01*
X83870000Y-66070000D02*
X83930000Y-66070000D01*
X83870000Y-68730000D02*
X83870000Y-66070000D01*
X82600000Y-68730000D02*
X81270000Y-68730000D01*
X81270000Y-68730000D02*
X81270000Y-67400000D01*
%TO.C,J3*%
X101070000Y-57270000D02*
X102400000Y-57270000D01*
X101070000Y-58600000D02*
X101070000Y-57270000D01*
X101070000Y-59870000D02*
X103730000Y-59870000D01*
X103730000Y-59870000D02*
X103730000Y-59930000D01*
X101070000Y-59870000D02*
X101070000Y-59930000D01*
X101070000Y-59930000D02*
X103730000Y-59930000D01*
%TO.C,R1*%
X87645276Y-68422500D02*
X88154724Y-68422500D01*
X87645276Y-67377500D02*
X88154724Y-67377500D01*
%TO.C,R2*%
X91842224Y-58822500D02*
X91332776Y-58822500D01*
X91842224Y-57777500D02*
X91332776Y-57777500D01*
%TO.C,R3*%
X99054724Y-57777500D02*
X98545276Y-57777500D01*
X99054724Y-58822500D02*
X98545276Y-58822500D01*
%TO.C,R4*%
X91445276Y-67377500D02*
X91954724Y-67377500D01*
X91445276Y-68422500D02*
X91954724Y-68422500D01*
%TO.C,U1*%
X94310000Y-66410000D02*
X94310000Y-65150000D01*
X94310000Y-59590000D02*
X94310000Y-60850000D01*
X90550000Y-66410000D02*
X94310000Y-66410000D01*
X88300000Y-59590000D02*
X94310000Y-59590000D01*
%TO.C,C1*%
D12*
X83333333Y-60057142D02*
X83285714Y-60104761D01*
X83142857Y-60152380D01*
X83047619Y-60152380D01*
X82904761Y-60104761D01*
X82809523Y-60009523D01*
X82761904Y-59914285D01*
X82714285Y-59723809D01*
X82714285Y-59580952D01*
X82761904Y-59390476D01*
X82809523Y-59295238D01*
X82904761Y-59200000D01*
X83047619Y-59152380D01*
X83142857Y-59152380D01*
X83285714Y-59200000D01*
X83333333Y-59247619D01*
X84285714Y-60152380D02*
X83714285Y-60152380D01*
X84000000Y-60152380D02*
X84000000Y-59152380D01*
X83904761Y-59295238D01*
X83809523Y-59390476D01*
X83714285Y-59438095D01*
%TO.C,C2*%
X95033333Y-66957142D02*
X94985714Y-67004761D01*
X94842857Y-67052380D01*
X94747619Y-67052380D01*
X94604761Y-67004761D01*
X94509523Y-66909523D01*
X94461904Y-66814285D01*
X94414285Y-66623809D01*
X94414285Y-66480952D01*
X94461904Y-66290476D01*
X94509523Y-66195238D01*
X94604761Y-66100000D01*
X94747619Y-66052380D01*
X94842857Y-66052380D01*
X94985714Y-66100000D01*
X95033333Y-66147619D01*
X95414285Y-66147619D02*
X95461904Y-66100000D01*
X95557142Y-66052380D01*
X95795238Y-66052380D01*
X95890476Y-66100000D01*
X95938095Y-66147619D01*
X95985714Y-66242857D01*
X95985714Y-66338095D01*
X95938095Y-66480952D01*
X95366666Y-67052380D01*
X95985714Y-67052380D01*
%TO.C,C3*%
X86833333Y-60057142D02*
X86785714Y-60104761D01*
X86642857Y-60152380D01*
X86547619Y-60152380D01*
X86404761Y-60104761D01*
X86309523Y-60009523D01*
X86261904Y-59914285D01*
X86214285Y-59723809D01*
X86214285Y-59580952D01*
X86261904Y-59390476D01*
X86309523Y-59295238D01*
X86404761Y-59200000D01*
X86547619Y-59152380D01*
X86642857Y-59152380D01*
X86785714Y-59200000D01*
X86833333Y-59247619D01*
X87166666Y-59152380D02*
X87785714Y-59152380D01*
X87452380Y-59533333D01*
X87595238Y-59533333D01*
X87690476Y-59580952D01*
X87738095Y-59628571D01*
X87785714Y-59723809D01*
X87785714Y-59961904D01*
X87738095Y-60057142D01*
X87690476Y-60104761D01*
X87595238Y-60152380D01*
X87309523Y-60152380D01*
X87214285Y-60104761D01*
X87166666Y-60057142D01*
%TO.C,C4*%
X95033333Y-60057142D02*
X94985714Y-60104761D01*
X94842857Y-60152380D01*
X94747619Y-60152380D01*
X94604761Y-60104761D01*
X94509523Y-60009523D01*
X94461904Y-59914285D01*
X94414285Y-59723809D01*
X94414285Y-59580952D01*
X94461904Y-59390476D01*
X94509523Y-59295238D01*
X94604761Y-59200000D01*
X94747619Y-59152380D01*
X94842857Y-59152380D01*
X94985714Y-59200000D01*
X95033333Y-59247619D01*
X95890476Y-59485714D02*
X95890476Y-60152380D01*
X95652380Y-59104761D02*
X95414285Y-59819047D01*
X96033333Y-59819047D01*
%TO.C,R1*%
X86933333Y-66952380D02*
X86600000Y-66476190D01*
X86361904Y-66952380D02*
X86361904Y-65952380D01*
X86742857Y-65952380D01*
X86838095Y-66000000D01*
X86885714Y-66047619D01*
X86933333Y-66142857D01*
X86933333Y-66285714D01*
X86885714Y-66380952D01*
X86838095Y-66428571D01*
X86742857Y-66476190D01*
X86361904Y-66476190D01*
X87885714Y-66952380D02*
X87314285Y-66952380D01*
X87600000Y-66952380D02*
X87600000Y-65952380D01*
X87504761Y-66095238D01*
X87409523Y-66190476D01*
X87314285Y-66238095D01*
%TO.C,R2*%
X91533333Y-60152380D02*
X91200000Y-59676190D01*
X90961904Y-60152380D02*
X90961904Y-59152380D01*
X91342857Y-59152380D01*
X91438095Y-59200000D01*
X91485714Y-59247619D01*
X91533333Y-59342857D01*
X91533333Y-59485714D01*
X91485714Y-59580952D01*
X91438095Y-59628571D01*
X91342857Y-59676190D01*
X90961904Y-59676190D01*
X91914285Y-59247619D02*
X91961904Y-59200000D01*
X92057142Y-59152380D01*
X92295238Y-59152380D01*
X92390476Y-59200000D01*
X92438095Y-59247619D01*
X92485714Y-59342857D01*
X92485714Y-59438095D01*
X92438095Y-59580952D01*
X91866666Y-60152380D01*
X92485714Y-60152380D01*
%TO.C,R3*%
X98733333Y-60152380D02*
X98400000Y-59676190D01*
X98161904Y-60152380D02*
X98161904Y-59152380D01*
X98542857Y-59152380D01*
X98638095Y-59200000D01*
X98685714Y-59247619D01*
X98733333Y-59342857D01*
X98733333Y-59485714D01*
X98685714Y-59580952D01*
X98638095Y-59628571D01*
X98542857Y-59676190D01*
X98161904Y-59676190D01*
X99066666Y-59152380D02*
X99685714Y-59152380D01*
X99352380Y-59533333D01*
X99495238Y-59533333D01*
X99590476Y-59580952D01*
X99638095Y-59628571D01*
X99685714Y-59723809D01*
X99685714Y-59961904D01*
X99638095Y-60057142D01*
X99590476Y-60104761D01*
X99495238Y-60152380D01*
X99209523Y-60152380D01*
X99114285Y-60104761D01*
X99066666Y-60057142D01*
%TO.C,R4*%
X91633333Y-67052380D02*
X91300000Y-66576190D01*
X91061904Y-67052380D02*
X91061904Y-66052380D01*
X91442857Y-66052380D01*
X91538095Y-66100000D01*
X91585714Y-66147619D01*
X91633333Y-66242857D01*
X91633333Y-66385714D01*
X91585714Y-66480952D01*
X91538095Y-66528571D01*
X91442857Y-66576190D01*
X91061904Y-66576190D01*
X92490476Y-66385714D02*
X92490476Y-67052380D01*
X92252380Y-66004761D02*
X92014285Y-66719047D01*
X92633333Y-66719047D01*
%TD*%
M02*
