%TF.GenerationSoftware,KiCad,Pcbnew,(5.1.8)-1*%
%TF.CreationDate,2021-01-22T21:13:55+01:00*%
%TF.ProjectId,const-curr_LT3092,636f6e73-742d-4637-9572-725f4c543330,rev?*%
%TF.SameCoordinates,Original*%
%TF.FileFunction,Soldermask,Top*%
%TF.FilePolarity,Negative*%
%FSLAX46Y46*%
G04 Gerber Fmt 4.6, Leading zero omitted, Abs format (unit mm)*
G04 Created by KiCad (PCBNEW (5.1.8)-1) date 2021-01-22 21:13:55*
%MOMM*%
%LPD*%
G01*
G04 APERTURE LIST*
%ADD10C,3.430000*%
G04 APERTURE END LIST*
%TO.C,C1*%
G36*
G01*
X83510000Y-58645000D02*
X83510000Y-57955000D01*
G75*
G02*
X83855000Y-57610000I345000J0D01*
G01*
X84670000Y-57610000D01*
G75*
G02*
X85015000Y-57955000I0J-345000D01*
G01*
X85015000Y-58645000D01*
G75*
G02*
X84670000Y-58990000I-345000J0D01*
G01*
X83855000Y-58990000D01*
G75*
G02*
X83510000Y-58645000I0J345000D01*
G01*
G37*
G36*
G01*
X81785000Y-58645000D02*
X81785000Y-57955000D01*
G75*
G02*
X82130000Y-57610000I345000J0D01*
G01*
X82945000Y-57610000D01*
G75*
G02*
X83290000Y-57955000I0J-345000D01*
G01*
X83290000Y-58645000D01*
G75*
G02*
X82945000Y-58990000I-345000J0D01*
G01*
X82130000Y-58990000D01*
G75*
G02*
X81785000Y-58645000I0J345000D01*
G01*
G37*
%TD*%
%TO.C,J2*%
G36*
G01*
X101335000Y-68150000D02*
X101335000Y-66450000D01*
G75*
G02*
X101550000Y-66235000I215000J0D01*
G01*
X103250000Y-66235000D01*
G75*
G02*
X103465000Y-66450000I0J-215000D01*
G01*
X103465000Y-68150000D01*
G75*
G02*
X103250000Y-68365000I-215000J0D01*
G01*
X101550000Y-68365000D01*
G75*
G02*
X101335000Y-68150000I0J215000D01*
G01*
G37*
%TD*%
%TO.C,C2*%
G36*
G01*
X93685000Y-68245000D02*
X93685000Y-67555000D01*
G75*
G02*
X94030000Y-67210000I345000J0D01*
G01*
X94845000Y-67210000D01*
G75*
G02*
X95190000Y-67555000I0J-345000D01*
G01*
X95190000Y-68245000D01*
G75*
G02*
X94845000Y-68590000I-345000J0D01*
G01*
X94030000Y-68590000D01*
G75*
G02*
X93685000Y-68245000I0J345000D01*
G01*
G37*
G36*
G01*
X95410000Y-68245000D02*
X95410000Y-67555000D01*
G75*
G02*
X95755000Y-67210000I345000J0D01*
G01*
X96570000Y-67210000D01*
G75*
G02*
X96915000Y-67555000I0J-345000D01*
G01*
X96915000Y-68245000D01*
G75*
G02*
X96570000Y-68590000I-345000J0D01*
G01*
X95755000Y-68590000D01*
G75*
G02*
X95410000Y-68245000I0J345000D01*
G01*
G37*
%TD*%
%TO.C,C3*%
G36*
G01*
X86085000Y-58645000D02*
X86085000Y-57955000D01*
G75*
G02*
X86430000Y-57610000I345000J0D01*
G01*
X87245000Y-57610000D01*
G75*
G02*
X87590000Y-57955000I0J-345000D01*
G01*
X87590000Y-58645000D01*
G75*
G02*
X87245000Y-58990000I-345000J0D01*
G01*
X86430000Y-58990000D01*
G75*
G02*
X86085000Y-58645000I0J345000D01*
G01*
G37*
G36*
G01*
X87810000Y-58645000D02*
X87810000Y-57955000D01*
G75*
G02*
X88155000Y-57610000I345000J0D01*
G01*
X88970000Y-57610000D01*
G75*
G02*
X89315000Y-57955000I0J-345000D01*
G01*
X89315000Y-58645000D01*
G75*
G02*
X88970000Y-58990000I-345000J0D01*
G01*
X88155000Y-58990000D01*
G75*
G02*
X87810000Y-58645000I0J345000D01*
G01*
G37*
%TD*%
%TO.C,C4*%
G36*
G01*
X95410000Y-58645000D02*
X95410000Y-57955000D01*
G75*
G02*
X95755000Y-57610000I345000J0D01*
G01*
X96570000Y-57610000D01*
G75*
G02*
X96915000Y-57955000I0J-345000D01*
G01*
X96915000Y-58645000D01*
G75*
G02*
X96570000Y-58990000I-345000J0D01*
G01*
X95755000Y-58990000D01*
G75*
G02*
X95410000Y-58645000I0J345000D01*
G01*
G37*
G36*
G01*
X93685000Y-58645000D02*
X93685000Y-57955000D01*
G75*
G02*
X94030000Y-57610000I345000J0D01*
G01*
X94845000Y-57610000D01*
G75*
G02*
X95190000Y-57955000I0J-345000D01*
G01*
X95190000Y-58645000D01*
G75*
G02*
X94845000Y-58990000I-345000J0D01*
G01*
X94030000Y-58990000D01*
G75*
G02*
X93685000Y-58645000I0J345000D01*
G01*
G37*
%TD*%
D10*
%TO.C,H1*%
X100700000Y-63000000D03*
%TD*%
%TO.C,H2*%
X84300000Y-63000000D03*
%TD*%
%TO.C,J1*%
G36*
G01*
X83450000Y-68465000D02*
X81750000Y-68465000D01*
G75*
G02*
X81535000Y-68250000I0J215000D01*
G01*
X81535000Y-66550000D01*
G75*
G02*
X81750000Y-66335000I215000J0D01*
G01*
X83450000Y-66335000D01*
G75*
G02*
X83665000Y-66550000I0J-215000D01*
G01*
X83665000Y-68250000D01*
G75*
G02*
X83450000Y-68465000I-215000J0D01*
G01*
G37*
%TD*%
%TO.C,J3*%
G36*
G01*
X101335000Y-59450000D02*
X101335000Y-57750000D01*
G75*
G02*
X101550000Y-57535000I215000J0D01*
G01*
X103250000Y-57535000D01*
G75*
G02*
X103465000Y-57750000I0J-215000D01*
G01*
X103465000Y-59450000D01*
G75*
G02*
X103250000Y-59665000I-215000J0D01*
G01*
X101550000Y-59665000D01*
G75*
G02*
X101335000Y-59450000I0J215000D01*
G01*
G37*
%TD*%
%TO.C,R1*%
G36*
G01*
X88110000Y-68245000D02*
X88110000Y-67555000D01*
G75*
G02*
X88455000Y-67210000I345000J0D01*
G01*
X89170000Y-67210000D01*
G75*
G02*
X89515000Y-67555000I0J-345000D01*
G01*
X89515000Y-68245000D01*
G75*
G02*
X89170000Y-68590000I-345000J0D01*
G01*
X88455000Y-68590000D01*
G75*
G02*
X88110000Y-68245000I0J345000D01*
G01*
G37*
G36*
G01*
X86285000Y-68245000D02*
X86285000Y-67555000D01*
G75*
G02*
X86630000Y-67210000I345000J0D01*
G01*
X87345000Y-67210000D01*
G75*
G02*
X87690000Y-67555000I0J-345000D01*
G01*
X87690000Y-68245000D01*
G75*
G02*
X87345000Y-68590000I-345000J0D01*
G01*
X86630000Y-68590000D01*
G75*
G02*
X86285000Y-68245000I0J345000D01*
G01*
G37*
%TD*%
%TO.C,R2*%
G36*
G01*
X93202500Y-57955000D02*
X93202500Y-58645000D01*
G75*
G02*
X92857500Y-58990000I-345000J0D01*
G01*
X92142500Y-58990000D01*
G75*
G02*
X91797500Y-58645000I0J345000D01*
G01*
X91797500Y-57955000D01*
G75*
G02*
X92142500Y-57610000I345000J0D01*
G01*
X92857500Y-57610000D01*
G75*
G02*
X93202500Y-57955000I0J-345000D01*
G01*
G37*
G36*
G01*
X91377500Y-57955000D02*
X91377500Y-58645000D01*
G75*
G02*
X91032500Y-58990000I-345000J0D01*
G01*
X90317500Y-58990000D01*
G75*
G02*
X89972500Y-58645000I0J345000D01*
G01*
X89972500Y-57955000D01*
G75*
G02*
X90317500Y-57610000I345000J0D01*
G01*
X91032500Y-57610000D01*
G75*
G02*
X91377500Y-57955000I0J-345000D01*
G01*
G37*
%TD*%
%TO.C,R3*%
G36*
G01*
X98590000Y-57955000D02*
X98590000Y-58645000D01*
G75*
G02*
X98245000Y-58990000I-345000J0D01*
G01*
X97530000Y-58990000D01*
G75*
G02*
X97185000Y-58645000I0J345000D01*
G01*
X97185000Y-57955000D01*
G75*
G02*
X97530000Y-57610000I345000J0D01*
G01*
X98245000Y-57610000D01*
G75*
G02*
X98590000Y-57955000I0J-345000D01*
G01*
G37*
G36*
G01*
X100415000Y-57955000D02*
X100415000Y-58645000D01*
G75*
G02*
X100070000Y-58990000I-345000J0D01*
G01*
X99355000Y-58990000D01*
G75*
G02*
X99010000Y-58645000I0J345000D01*
G01*
X99010000Y-57955000D01*
G75*
G02*
X99355000Y-57610000I345000J0D01*
G01*
X100070000Y-57610000D01*
G75*
G02*
X100415000Y-57955000I0J-345000D01*
G01*
G37*
%TD*%
%TO.C,R4*%
G36*
G01*
X90085000Y-68245000D02*
X90085000Y-67555000D01*
G75*
G02*
X90430000Y-67210000I345000J0D01*
G01*
X91145000Y-67210000D01*
G75*
G02*
X91490000Y-67555000I0J-345000D01*
G01*
X91490000Y-68245000D01*
G75*
G02*
X91145000Y-68590000I-345000J0D01*
G01*
X90430000Y-68590000D01*
G75*
G02*
X90085000Y-68245000I0J345000D01*
G01*
G37*
G36*
G01*
X91910000Y-68245000D02*
X91910000Y-67555000D01*
G75*
G02*
X92255000Y-67210000I345000J0D01*
G01*
X92970000Y-67210000D01*
G75*
G02*
X93315000Y-67555000I0J-345000D01*
G01*
X93315000Y-68245000D01*
G75*
G02*
X92970000Y-68590000I-345000J0D01*
G01*
X92255000Y-68590000D01*
G75*
G02*
X91910000Y-68245000I0J345000D01*
G01*
G37*
%TD*%
%TO.C,U1*%
G36*
G01*
X94335000Y-64900000D02*
X94335000Y-61100000D01*
G75*
G02*
X94550000Y-60885000I215000J0D01*
G01*
X96550000Y-60885000D01*
G75*
G02*
X96765000Y-61100000I0J-215000D01*
G01*
X96765000Y-64900000D01*
G75*
G02*
X96550000Y-65115000I-215000J0D01*
G01*
X94550000Y-65115000D01*
G75*
G02*
X94335000Y-64900000I0J215000D01*
G01*
G37*
G36*
G01*
X88035000Y-63750000D02*
X88035000Y-62250000D01*
G75*
G02*
X88250000Y-62035000I215000J0D01*
G01*
X90250000Y-62035000D01*
G75*
G02*
X90465000Y-62250000I0J-215000D01*
G01*
X90465000Y-63750000D01*
G75*
G02*
X90250000Y-63965000I-215000J0D01*
G01*
X88250000Y-63965000D01*
G75*
G02*
X88035000Y-63750000I0J215000D01*
G01*
G37*
G36*
G01*
X88035000Y-66050000D02*
X88035000Y-64550000D01*
G75*
G02*
X88250000Y-64335000I215000J0D01*
G01*
X90250000Y-64335000D01*
G75*
G02*
X90465000Y-64550000I0J-215000D01*
G01*
X90465000Y-66050000D01*
G75*
G02*
X90250000Y-66265000I-215000J0D01*
G01*
X88250000Y-66265000D01*
G75*
G02*
X88035000Y-66050000I0J215000D01*
G01*
G37*
G36*
G01*
X88035000Y-61450000D02*
X88035000Y-59950000D01*
G75*
G02*
X88250000Y-59735000I215000J0D01*
G01*
X90250000Y-59735000D01*
G75*
G02*
X90465000Y-59950000I0J-215000D01*
G01*
X90465000Y-61450000D01*
G75*
G02*
X90250000Y-61665000I-215000J0D01*
G01*
X88250000Y-61665000D01*
G75*
G02*
X88035000Y-61450000I0J215000D01*
G01*
G37*
%TD*%
M02*
