%TF.GenerationSoftware,KiCad,Pcbnew,(5.1.8)-1*%
%TF.CreationDate,2021-01-22T21:13:55+01:00*%
%TF.ProjectId,const-curr_LT3092,636f6e73-742d-4637-9572-725f4c543330,rev?*%
%TF.SameCoordinates,Original*%
%TF.FileFunction,Copper,L1,Top*%
%TF.FilePolarity,Positive*%
%FSLAX46Y46*%
G04 Gerber Fmt 4.6, Leading zero omitted, Abs format (unit mm)*
G04 Created by KiCad (PCBNEW (5.1.8)-1) date 2021-01-22 21:13:55*
%MOMM*%
%LPD*%
G01*
G04 APERTURE LIST*
%TA.AperFunction,ComponentPad*%
%ADD10R,1.700000X1.700000*%
%TD*%
%TA.AperFunction,SMDPad,CuDef*%
%ADD11R,2.000000X3.800000*%
%TD*%
%TA.AperFunction,SMDPad,CuDef*%
%ADD12R,2.000000X1.500000*%
%TD*%
%TA.AperFunction,ViaPad*%
%ADD13C,0.500000*%
%TD*%
%TA.AperFunction,Conductor*%
%ADD14C,0.400000*%
%TD*%
%TA.AperFunction,Conductor*%
%ADD15C,0.900000*%
%TD*%
G04 APERTURE END LIST*
%TO.P,C1,2*%
%TO.N,Net-(C1-Pad2)*%
%TA.AperFunction,SMDPad,CuDef*%
G36*
G01*
X83725000Y-58537500D02*
X83725000Y-58062500D01*
G75*
G02*
X83962500Y-57825000I237500J0D01*
G01*
X84562500Y-57825000D01*
G75*
G02*
X84800000Y-58062500I0J-237500D01*
G01*
X84800000Y-58537500D01*
G75*
G02*
X84562500Y-58775000I-237500J0D01*
G01*
X83962500Y-58775000D01*
G75*
G02*
X83725000Y-58537500I0J237500D01*
G01*
G37*
%TD.AperFunction*%
%TO.P,C1,1*%
%TO.N,Net-(C1-Pad1)*%
%TA.AperFunction,SMDPad,CuDef*%
G36*
G01*
X82000000Y-58537500D02*
X82000000Y-58062500D01*
G75*
G02*
X82237500Y-57825000I237500J0D01*
G01*
X82837500Y-57825000D01*
G75*
G02*
X83075000Y-58062500I0J-237500D01*
G01*
X83075000Y-58537500D01*
G75*
G02*
X82837500Y-58775000I-237500J0D01*
G01*
X82237500Y-58775000D01*
G75*
G02*
X82000000Y-58537500I0J237500D01*
G01*
G37*
%TD.AperFunction*%
%TD*%
D10*
%TO.P,J2,1*%
%TO.N,GND*%
X102400000Y-67300000D03*
%TD*%
%TO.P,C2,1*%
%TO.N,Net-(C2-Pad1)*%
%TA.AperFunction,SMDPad,CuDef*%
G36*
G01*
X93900000Y-68137500D02*
X93900000Y-67662500D01*
G75*
G02*
X94137500Y-67425000I237500J0D01*
G01*
X94737500Y-67425000D01*
G75*
G02*
X94975000Y-67662500I0J-237500D01*
G01*
X94975000Y-68137500D01*
G75*
G02*
X94737500Y-68375000I-237500J0D01*
G01*
X94137500Y-68375000D01*
G75*
G02*
X93900000Y-68137500I0J237500D01*
G01*
G37*
%TD.AperFunction*%
%TO.P,C2,2*%
%TO.N,GND*%
%TA.AperFunction,SMDPad,CuDef*%
G36*
G01*
X95625000Y-68137500D02*
X95625000Y-67662500D01*
G75*
G02*
X95862500Y-67425000I237500J0D01*
G01*
X96462500Y-67425000D01*
G75*
G02*
X96700000Y-67662500I0J-237500D01*
G01*
X96700000Y-68137500D01*
G75*
G02*
X96462500Y-68375000I-237500J0D01*
G01*
X95862500Y-68375000D01*
G75*
G02*
X95625000Y-68137500I0J237500D01*
G01*
G37*
%TD.AperFunction*%
%TD*%
%TO.P,C3,1*%
%TO.N,Net-(C3-Pad1)*%
%TA.AperFunction,SMDPad,CuDef*%
G36*
G01*
X86300000Y-58537500D02*
X86300000Y-58062500D01*
G75*
G02*
X86537500Y-57825000I237500J0D01*
G01*
X87137500Y-57825000D01*
G75*
G02*
X87375000Y-58062500I0J-237500D01*
G01*
X87375000Y-58537500D01*
G75*
G02*
X87137500Y-58775000I-237500J0D01*
G01*
X86537500Y-58775000D01*
G75*
G02*
X86300000Y-58537500I0J237500D01*
G01*
G37*
%TD.AperFunction*%
%TO.P,C3,2*%
%TO.N,Net-(C3-Pad2)*%
%TA.AperFunction,SMDPad,CuDef*%
G36*
G01*
X88025000Y-58537500D02*
X88025000Y-58062500D01*
G75*
G02*
X88262500Y-57825000I237500J0D01*
G01*
X88862500Y-57825000D01*
G75*
G02*
X89100000Y-58062500I0J-237500D01*
G01*
X89100000Y-58537500D01*
G75*
G02*
X88862500Y-58775000I-237500J0D01*
G01*
X88262500Y-58775000D01*
G75*
G02*
X88025000Y-58537500I0J237500D01*
G01*
G37*
%TD.AperFunction*%
%TD*%
%TO.P,C4,2*%
%TO.N,GND*%
%TA.AperFunction,SMDPad,CuDef*%
G36*
G01*
X95625000Y-58537500D02*
X95625000Y-58062500D01*
G75*
G02*
X95862500Y-57825000I237500J0D01*
G01*
X96462500Y-57825000D01*
G75*
G02*
X96700000Y-58062500I0J-237500D01*
G01*
X96700000Y-58537500D01*
G75*
G02*
X96462500Y-58775000I-237500J0D01*
G01*
X95862500Y-58775000D01*
G75*
G02*
X95625000Y-58537500I0J237500D01*
G01*
G37*
%TD.AperFunction*%
%TO.P,C4,1*%
%TO.N,Net-(C3-Pad2)*%
%TA.AperFunction,SMDPad,CuDef*%
G36*
G01*
X93900000Y-58537500D02*
X93900000Y-58062500D01*
G75*
G02*
X94137500Y-57825000I237500J0D01*
G01*
X94737500Y-57825000D01*
G75*
G02*
X94975000Y-58062500I0J-237500D01*
G01*
X94975000Y-58537500D01*
G75*
G02*
X94737500Y-58775000I-237500J0D01*
G01*
X94137500Y-58775000D01*
G75*
G02*
X93900000Y-58537500I0J237500D01*
G01*
G37*
%TD.AperFunction*%
%TD*%
%TO.P,J1,1*%
%TO.N,Net-(J1-Pad1)*%
X82600000Y-67400000D03*
%TD*%
%TO.P,J3,1*%
%TO.N,Net-(C3-Pad2)*%
X102400000Y-58600000D03*
%TD*%
%TO.P,R1,2*%
%TO.N,Net-(C1-Pad1)*%
%TA.AperFunction,SMDPad,CuDef*%
G36*
G01*
X88325000Y-68137500D02*
X88325000Y-67662500D01*
G75*
G02*
X88562500Y-67425000I237500J0D01*
G01*
X89062500Y-67425000D01*
G75*
G02*
X89300000Y-67662500I0J-237500D01*
G01*
X89300000Y-68137500D01*
G75*
G02*
X89062500Y-68375000I-237500J0D01*
G01*
X88562500Y-68375000D01*
G75*
G02*
X88325000Y-68137500I0J237500D01*
G01*
G37*
%TD.AperFunction*%
%TO.P,R1,1*%
%TO.N,Net-(J1-Pad1)*%
%TA.AperFunction,SMDPad,CuDef*%
G36*
G01*
X86500000Y-68137500D02*
X86500000Y-67662500D01*
G75*
G02*
X86737500Y-67425000I237500J0D01*
G01*
X87237500Y-67425000D01*
G75*
G02*
X87475000Y-67662500I0J-237500D01*
G01*
X87475000Y-68137500D01*
G75*
G02*
X87237500Y-68375000I-237500J0D01*
G01*
X86737500Y-68375000D01*
G75*
G02*
X86500000Y-68137500I0J237500D01*
G01*
G37*
%TD.AperFunction*%
%TD*%
%TO.P,R2,1*%
%TO.N,Net-(C3-Pad1)*%
%TA.AperFunction,SMDPad,CuDef*%
G36*
G01*
X92987500Y-58062500D02*
X92987500Y-58537500D01*
G75*
G02*
X92750000Y-58775000I-237500J0D01*
G01*
X92250000Y-58775000D01*
G75*
G02*
X92012500Y-58537500I0J237500D01*
G01*
X92012500Y-58062500D01*
G75*
G02*
X92250000Y-57825000I237500J0D01*
G01*
X92750000Y-57825000D01*
G75*
G02*
X92987500Y-58062500I0J-237500D01*
G01*
G37*
%TD.AperFunction*%
%TO.P,R2,2*%
%TO.N,Net-(C3-Pad2)*%
%TA.AperFunction,SMDPad,CuDef*%
G36*
G01*
X91162500Y-58062500D02*
X91162500Y-58537500D01*
G75*
G02*
X90925000Y-58775000I-237500J0D01*
G01*
X90425000Y-58775000D01*
G75*
G02*
X90187500Y-58537500I0J237500D01*
G01*
X90187500Y-58062500D01*
G75*
G02*
X90425000Y-57825000I237500J0D01*
G01*
X90925000Y-57825000D01*
G75*
G02*
X91162500Y-58062500I0J-237500D01*
G01*
G37*
%TD.AperFunction*%
%TD*%
%TO.P,R3,2*%
%TO.N,Net-(C1-Pad2)*%
%TA.AperFunction,SMDPad,CuDef*%
G36*
G01*
X98375000Y-58062500D02*
X98375000Y-58537500D01*
G75*
G02*
X98137500Y-58775000I-237500J0D01*
G01*
X97637500Y-58775000D01*
G75*
G02*
X97400000Y-58537500I0J237500D01*
G01*
X97400000Y-58062500D01*
G75*
G02*
X97637500Y-57825000I237500J0D01*
G01*
X98137500Y-57825000D01*
G75*
G02*
X98375000Y-58062500I0J-237500D01*
G01*
G37*
%TD.AperFunction*%
%TO.P,R3,1*%
%TO.N,Net-(C3-Pad2)*%
%TA.AperFunction,SMDPad,CuDef*%
G36*
G01*
X100200000Y-58062500D02*
X100200000Y-58537500D01*
G75*
G02*
X99962500Y-58775000I-237500J0D01*
G01*
X99462500Y-58775000D01*
G75*
G02*
X99225000Y-58537500I0J237500D01*
G01*
X99225000Y-58062500D01*
G75*
G02*
X99462500Y-57825000I237500J0D01*
G01*
X99962500Y-57825000D01*
G75*
G02*
X100200000Y-58062500I0J-237500D01*
G01*
G37*
%TD.AperFunction*%
%TD*%
%TO.P,R4,1*%
%TO.N,Net-(J1-Pad1)*%
%TA.AperFunction,SMDPad,CuDef*%
G36*
G01*
X90300000Y-68137500D02*
X90300000Y-67662500D01*
G75*
G02*
X90537500Y-67425000I237500J0D01*
G01*
X91037500Y-67425000D01*
G75*
G02*
X91275000Y-67662500I0J-237500D01*
G01*
X91275000Y-68137500D01*
G75*
G02*
X91037500Y-68375000I-237500J0D01*
G01*
X90537500Y-68375000D01*
G75*
G02*
X90300000Y-68137500I0J237500D01*
G01*
G37*
%TD.AperFunction*%
%TO.P,R4,2*%
%TO.N,Net-(C2-Pad1)*%
%TA.AperFunction,SMDPad,CuDef*%
G36*
G01*
X92125000Y-68137500D02*
X92125000Y-67662500D01*
G75*
G02*
X92362500Y-67425000I237500J0D01*
G01*
X92862500Y-67425000D01*
G75*
G02*
X93100000Y-67662500I0J-237500D01*
G01*
X93100000Y-68137500D01*
G75*
G02*
X92862500Y-68375000I-237500J0D01*
G01*
X92362500Y-68375000D01*
G75*
G02*
X92125000Y-68137500I0J237500D01*
G01*
G37*
%TD.AperFunction*%
%TD*%
D11*
%TO.P,U1,2*%
%TO.N,Net-(C1-Pad2)*%
X95550000Y-63000000D03*
D12*
X89250000Y-63000000D03*
%TO.P,U1,3*%
%TO.N,Net-(J1-Pad1)*%
X89250000Y-65300000D03*
%TO.P,U1,1*%
%TO.N,Net-(C3-Pad1)*%
X89250000Y-60700000D03*
%TD*%
D13*
%TO.N,Net-(C1-Pad2)*%
X96200000Y-64400000D03*
X95000000Y-64400000D03*
X96200000Y-63000000D03*
X95000000Y-63000000D03*
X96200000Y-61500000D03*
X95000000Y-61500000D03*
%TO.N,GND*%
X96900000Y-60300000D03*
X98300000Y-62200000D03*
%TO.N,Net-(C3-Pad2)*%
X91400000Y-59500000D03*
X93800000Y-59500000D03*
X95900000Y-59500000D03*
X99000000Y-59500000D03*
%TO.N,Net-(J1-Pad1)*%
X85500000Y-66400000D03*
X87500000Y-65200000D03*
%TD*%
D14*
%TO.N,Net-(C1-Pad2)*%
X84262500Y-58300000D02*
X87300009Y-61337509D01*
X87300009Y-61337509D02*
X87300009Y-62400009D01*
X87900000Y-63000000D02*
X89250000Y-63000000D01*
X87300009Y-62400009D02*
X87900000Y-63000000D01*
X95550000Y-61650000D02*
X95550000Y-63000000D01*
D15*
X89250000Y-63000000D02*
X95550000Y-63000000D01*
D14*
X97887500Y-61012500D02*
X97887500Y-58300000D01*
X97400000Y-61500000D02*
X97887500Y-61012500D01*
X96200000Y-61500000D02*
X97400000Y-61500000D01*
%TO.N,Net-(C1-Pad1)*%
X88812500Y-67900000D02*
X88812500Y-67812500D01*
X88812500Y-67812500D02*
X86700000Y-65700000D01*
X86700000Y-65700000D02*
X86700000Y-62100000D01*
X86700000Y-62100000D02*
X85100000Y-60500000D01*
X85100000Y-60500000D02*
X83100000Y-60500000D01*
X82537500Y-59937500D02*
X82537500Y-58300000D01*
X83100000Y-60500000D02*
X82537500Y-59937500D01*
%TO.N,Net-(C2-Pad1)*%
X92612500Y-67900000D02*
X94437500Y-67900000D01*
%TO.N,GND*%
X96162500Y-67900000D02*
X97000000Y-67900000D01*
X97000000Y-67900000D02*
X97600000Y-67300000D01*
X97600000Y-67300000D02*
X98100000Y-67300000D01*
X98100000Y-67300000D02*
X102400000Y-67300000D01*
X98100000Y-65400000D02*
X98100000Y-67300000D01*
X96162500Y-58300000D02*
X96162500Y-58562500D01*
X96162500Y-58300000D02*
X96900000Y-59037500D01*
X96900000Y-59037500D02*
X96900000Y-60300000D01*
X98300000Y-62200000D02*
X98300000Y-62700000D01*
X98100000Y-62900000D02*
X98100000Y-65400000D01*
X98300000Y-62700000D02*
X98100000Y-62900000D01*
%TO.N,Net-(C3-Pad1)*%
X86850000Y-58300000D02*
X89250000Y-60700000D01*
X86837500Y-58300000D02*
X86850000Y-58300000D01*
X89250000Y-60700000D02*
X91600000Y-60700000D01*
X92500000Y-59800000D02*
X92500000Y-58300000D01*
X91600000Y-60700000D02*
X92500000Y-59800000D01*
%TO.N,Net-(C3-Pad2)*%
X99712500Y-58300000D02*
X100000000Y-58300000D01*
X102100000Y-58300000D02*
X102400000Y-58600000D01*
X99712500Y-58300000D02*
X102100000Y-58300000D01*
X88562500Y-58300000D02*
X90675000Y-58300000D01*
X90675000Y-58300000D02*
X90675000Y-58775000D01*
X90675000Y-58775000D02*
X91400000Y-59500000D01*
X93800000Y-59500000D02*
X94100000Y-59500000D01*
X94437500Y-59162500D02*
X94437500Y-58300000D01*
X94100000Y-59500000D02*
X94437500Y-59162500D01*
X93800000Y-59500000D02*
X95900000Y-59500000D01*
X99000000Y-59500000D02*
X99400000Y-59500000D01*
X99712500Y-59187500D02*
X99712500Y-58300000D01*
X99400000Y-59500000D02*
X99712500Y-59187500D01*
%TO.N,Net-(J1-Pad1)*%
X82600000Y-67400000D02*
X84700000Y-67400000D01*
X85200000Y-67900000D02*
X86987500Y-67900000D01*
X84700000Y-67400000D02*
X85200000Y-67900000D01*
X84700000Y-67400000D02*
X84700000Y-67100000D01*
X85400000Y-66400000D02*
X85500000Y-66400000D01*
X84700000Y-67100000D02*
X85400000Y-66400000D01*
X89150000Y-65200000D02*
X89250000Y-65300000D01*
X87500000Y-65200000D02*
X89150000Y-65200000D01*
X89250000Y-66362500D02*
X90787500Y-67900000D01*
X89250000Y-65300000D02*
X89250000Y-66362500D01*
%TD*%
M02*
