%TF.GenerationSoftware,KiCad,Pcbnew,(5.1.8)-1*%
%TF.CreationDate,2021-01-22T21:13:55+01:00*%
%TF.ProjectId,const-curr_LT3092,636f6e73-742d-4637-9572-725f4c543330,rev?*%
%TF.SameCoordinates,Original*%
%TF.FileFunction,Paste,Top*%
%TF.FilePolarity,Positive*%
%FSLAX46Y46*%
G04 Gerber Fmt 4.6, Leading zero omitted, Abs format (unit mm)*
G04 Created by KiCad (PCBNEW (5.1.8)-1) date 2021-01-22 21:13:55*
%MOMM*%
%LPD*%
G01*
G04 APERTURE LIST*
%ADD10R,2.000000X3.800000*%
%ADD11R,2.000000X1.500000*%
G04 APERTURE END LIST*
%TO.C,C1*%
G36*
G01*
X83725000Y-58537500D02*
X83725000Y-58062500D01*
G75*
G02*
X83962500Y-57825000I237500J0D01*
G01*
X84562500Y-57825000D01*
G75*
G02*
X84800000Y-58062500I0J-237500D01*
G01*
X84800000Y-58537500D01*
G75*
G02*
X84562500Y-58775000I-237500J0D01*
G01*
X83962500Y-58775000D01*
G75*
G02*
X83725000Y-58537500I0J237500D01*
G01*
G37*
G36*
G01*
X82000000Y-58537500D02*
X82000000Y-58062500D01*
G75*
G02*
X82237500Y-57825000I237500J0D01*
G01*
X82837500Y-57825000D01*
G75*
G02*
X83075000Y-58062500I0J-237500D01*
G01*
X83075000Y-58537500D01*
G75*
G02*
X82837500Y-58775000I-237500J0D01*
G01*
X82237500Y-58775000D01*
G75*
G02*
X82000000Y-58537500I0J237500D01*
G01*
G37*
%TD*%
%TO.C,C2*%
G36*
G01*
X93900000Y-68137500D02*
X93900000Y-67662500D01*
G75*
G02*
X94137500Y-67425000I237500J0D01*
G01*
X94737500Y-67425000D01*
G75*
G02*
X94975000Y-67662500I0J-237500D01*
G01*
X94975000Y-68137500D01*
G75*
G02*
X94737500Y-68375000I-237500J0D01*
G01*
X94137500Y-68375000D01*
G75*
G02*
X93900000Y-68137500I0J237500D01*
G01*
G37*
G36*
G01*
X95625000Y-68137500D02*
X95625000Y-67662500D01*
G75*
G02*
X95862500Y-67425000I237500J0D01*
G01*
X96462500Y-67425000D01*
G75*
G02*
X96700000Y-67662500I0J-237500D01*
G01*
X96700000Y-68137500D01*
G75*
G02*
X96462500Y-68375000I-237500J0D01*
G01*
X95862500Y-68375000D01*
G75*
G02*
X95625000Y-68137500I0J237500D01*
G01*
G37*
%TD*%
%TO.C,C3*%
G36*
G01*
X86300000Y-58537500D02*
X86300000Y-58062500D01*
G75*
G02*
X86537500Y-57825000I237500J0D01*
G01*
X87137500Y-57825000D01*
G75*
G02*
X87375000Y-58062500I0J-237500D01*
G01*
X87375000Y-58537500D01*
G75*
G02*
X87137500Y-58775000I-237500J0D01*
G01*
X86537500Y-58775000D01*
G75*
G02*
X86300000Y-58537500I0J237500D01*
G01*
G37*
G36*
G01*
X88025000Y-58537500D02*
X88025000Y-58062500D01*
G75*
G02*
X88262500Y-57825000I237500J0D01*
G01*
X88862500Y-57825000D01*
G75*
G02*
X89100000Y-58062500I0J-237500D01*
G01*
X89100000Y-58537500D01*
G75*
G02*
X88862500Y-58775000I-237500J0D01*
G01*
X88262500Y-58775000D01*
G75*
G02*
X88025000Y-58537500I0J237500D01*
G01*
G37*
%TD*%
%TO.C,C4*%
G36*
G01*
X95625000Y-58537500D02*
X95625000Y-58062500D01*
G75*
G02*
X95862500Y-57825000I237500J0D01*
G01*
X96462500Y-57825000D01*
G75*
G02*
X96700000Y-58062500I0J-237500D01*
G01*
X96700000Y-58537500D01*
G75*
G02*
X96462500Y-58775000I-237500J0D01*
G01*
X95862500Y-58775000D01*
G75*
G02*
X95625000Y-58537500I0J237500D01*
G01*
G37*
G36*
G01*
X93900000Y-58537500D02*
X93900000Y-58062500D01*
G75*
G02*
X94137500Y-57825000I237500J0D01*
G01*
X94737500Y-57825000D01*
G75*
G02*
X94975000Y-58062500I0J-237500D01*
G01*
X94975000Y-58537500D01*
G75*
G02*
X94737500Y-58775000I-237500J0D01*
G01*
X94137500Y-58775000D01*
G75*
G02*
X93900000Y-58537500I0J237500D01*
G01*
G37*
%TD*%
%TO.C,R1*%
G36*
G01*
X88325000Y-68137500D02*
X88325000Y-67662500D01*
G75*
G02*
X88562500Y-67425000I237500J0D01*
G01*
X89062500Y-67425000D01*
G75*
G02*
X89300000Y-67662500I0J-237500D01*
G01*
X89300000Y-68137500D01*
G75*
G02*
X89062500Y-68375000I-237500J0D01*
G01*
X88562500Y-68375000D01*
G75*
G02*
X88325000Y-68137500I0J237500D01*
G01*
G37*
G36*
G01*
X86500000Y-68137500D02*
X86500000Y-67662500D01*
G75*
G02*
X86737500Y-67425000I237500J0D01*
G01*
X87237500Y-67425000D01*
G75*
G02*
X87475000Y-67662500I0J-237500D01*
G01*
X87475000Y-68137500D01*
G75*
G02*
X87237500Y-68375000I-237500J0D01*
G01*
X86737500Y-68375000D01*
G75*
G02*
X86500000Y-68137500I0J237500D01*
G01*
G37*
%TD*%
%TO.C,R2*%
G36*
G01*
X92987500Y-58062500D02*
X92987500Y-58537500D01*
G75*
G02*
X92750000Y-58775000I-237500J0D01*
G01*
X92250000Y-58775000D01*
G75*
G02*
X92012500Y-58537500I0J237500D01*
G01*
X92012500Y-58062500D01*
G75*
G02*
X92250000Y-57825000I237500J0D01*
G01*
X92750000Y-57825000D01*
G75*
G02*
X92987500Y-58062500I0J-237500D01*
G01*
G37*
G36*
G01*
X91162500Y-58062500D02*
X91162500Y-58537500D01*
G75*
G02*
X90925000Y-58775000I-237500J0D01*
G01*
X90425000Y-58775000D01*
G75*
G02*
X90187500Y-58537500I0J237500D01*
G01*
X90187500Y-58062500D01*
G75*
G02*
X90425000Y-57825000I237500J0D01*
G01*
X90925000Y-57825000D01*
G75*
G02*
X91162500Y-58062500I0J-237500D01*
G01*
G37*
%TD*%
%TO.C,R3*%
G36*
G01*
X98375000Y-58062500D02*
X98375000Y-58537500D01*
G75*
G02*
X98137500Y-58775000I-237500J0D01*
G01*
X97637500Y-58775000D01*
G75*
G02*
X97400000Y-58537500I0J237500D01*
G01*
X97400000Y-58062500D01*
G75*
G02*
X97637500Y-57825000I237500J0D01*
G01*
X98137500Y-57825000D01*
G75*
G02*
X98375000Y-58062500I0J-237500D01*
G01*
G37*
G36*
G01*
X100200000Y-58062500D02*
X100200000Y-58537500D01*
G75*
G02*
X99962500Y-58775000I-237500J0D01*
G01*
X99462500Y-58775000D01*
G75*
G02*
X99225000Y-58537500I0J237500D01*
G01*
X99225000Y-58062500D01*
G75*
G02*
X99462500Y-57825000I237500J0D01*
G01*
X99962500Y-57825000D01*
G75*
G02*
X100200000Y-58062500I0J-237500D01*
G01*
G37*
%TD*%
%TO.C,R4*%
G36*
G01*
X90300000Y-68137500D02*
X90300000Y-67662500D01*
G75*
G02*
X90537500Y-67425000I237500J0D01*
G01*
X91037500Y-67425000D01*
G75*
G02*
X91275000Y-67662500I0J-237500D01*
G01*
X91275000Y-68137500D01*
G75*
G02*
X91037500Y-68375000I-237500J0D01*
G01*
X90537500Y-68375000D01*
G75*
G02*
X90300000Y-68137500I0J237500D01*
G01*
G37*
G36*
G01*
X92125000Y-68137500D02*
X92125000Y-67662500D01*
G75*
G02*
X92362500Y-67425000I237500J0D01*
G01*
X92862500Y-67425000D01*
G75*
G02*
X93100000Y-67662500I0J-237500D01*
G01*
X93100000Y-68137500D01*
G75*
G02*
X92862500Y-68375000I-237500J0D01*
G01*
X92362500Y-68375000D01*
G75*
G02*
X92125000Y-68137500I0J237500D01*
G01*
G37*
%TD*%
D10*
%TO.C,U1*%
X95550000Y-63000000D03*
D11*
X89250000Y-63000000D03*
X89250000Y-65300000D03*
X89250000Y-60700000D03*
%TD*%
M02*
